<svg width="97" height="73" viewBox="0 0 97 73" fill="none" xmlns="http://www.w3.org/2000/svg">
<path d="M35.3594 72C35.7656 70.0312 35.9688 68.4688 35.9688 67.3125C35.9688 66.125 35.9375 65.2344 35.875 64.6406C35.8438 64.0469 35.7812 63.4219 35.6875 62.7656C35.625 62.0781 35.5312 61.3281 35.4062 60.5156C35.3125 59.6719 35.2188 58.7031 35.125 57.6094C34.4062 50.1406 31.8594 44 27.4844 39.1875C25.5469 37.0625 23.4531 35.4531 21.2031 34.3594C18.9531 33.2344 17.0938 32.6719 15.625 32.6719C14.1875 32.6719 13.0781 32.7656 12.2969 32.9531C10.5469 38.2031 9.67188 43.6875 9.67188 49.4062C9.67188 54.4688 9.9375 58.25 10.4688 60.75C11.3125 64.5 12.6094 68.2656 14.3594 72.0469H0.34375C1.09375 70.1719 1.46875 66.2344 1.46875 60.2344C1.46875 54.2031 1.92188 48.5781 2.82812 43.3594C3.73438 38.1094 4.90625 33.4375 6.34375 29.3438C7.8125 25.25 9.4375 21.6719 11.2188 18.6094C13.0312 15.5156 14.8281 12.8281 16.6094 10.5469C18.4219 8.23438 20.125 6.26563 21.7188 4.64062C23.3125 2.98438 24.6406 1.53125 25.7031 0.28125H40.4688C39.125 1.8125 38.4531 3.95312 38.4531 6.70312C38.4531 7.95313 38.6562 10 39.0625 12.8438L40.2344 21.375C44.5156 50.875 48.3438 67.75 51.7188 72H35.3594ZM14.2188 27.9844C15.4375 27.5156 16.7188 27.2812 18.0625 27.2812C19.4062 27.2812 20.6094 27.375 21.6719 27.5625C22.7656 27.75 23.8438 28.0625 24.9062 28.5C27.1875 29.375 29.0938 30.7656 30.625 32.6719C29.0938 24.6406 28.1562 19.7344 27.8125 17.9531L26.1719 9.75L23.5 12.9375C19.75 17.4375 16.6562 22.4531 14.2188 27.9844ZM69.7188 26.1094C72.8438 24.5156 75.9688 23.7188 79.0938 23.7188C82.25 23.7188 84.7969 24.0781 86.7344 24.7969C88.6719 25.4844 90.3281 26.5 91.7031 27.8438C94.5781 30.6875 96.0156 34.75 96.0156 40.0312C96.0156 50.4688 93.2812 58.5625 87.8125 64.3125C82.9062 69.4375 76.7812 72 69.4375 72H56.6875L57.5781 69.8438C58.5156 67.5625 59.0625 65.2188 59.2188 62.8125C59.375 60.375 59.4844 58.1562 59.5469 56.1562C59.6406 54.125 59.7188 51.9375 59.7812 49.5938C59.9375 45.375 60.0156 41.2344 60.0156 37.1719C60.0156 33.1094 60 30.0312 59.9688 27.9375C59.9375 25.8438 59.9062 23.8125 59.875 21.8438C59.6875 14.4062 59.375 9.89062 58.9375 8.29688C58.5312 6.67187 58.125 5.46875 57.7188 4.6875C57.3438 3.875 56.9062 3.125 56.4062 2.4375L54.8125 0.28125H71.9219C70.7656 4.40625 70.0312 13.0156 69.7188 26.1094ZM69.7656 38.4375L69.625 55.6875C69.625 61.7188 69.7812 65.9531 70.0938 68.3906C74.375 67.4531 77.8125 64.5938 80.4062 59.8125C83 55.0938 84.2969 49.2812 84.2969 42.375C84.2969 38.0938 83.9688 35.0938 83.3125 33.375C82.6875 31.625 81.9219 30.3594 81.0156 29.5781C80.1406 28.7969 79.0781 28.4062 77.8281 28.4062C76.6094 28.4062 75.5312 28.625 74.5938 29.0625C73.6562 29.5 72.8281 30.1406 72.1094 30.9844C70.5469 32.8281 69.7656 35.3125 69.7656 38.4375Z" fill="white"/>
</svg>
