<svg width="362" height="108" viewBox="0 0 362 108" fill="none" xmlns="http://www.w3.org/2000/svg">
<path d="M120.134 0.00349875C120.451 0.00234416 120.767 0.00118957 121.092 0C121.589 0.00519564 121.589 0.00519564 122.095 0.0104962C122.426 0.00703249 122.757 0.00356872 123.098 0C123.572 0.00173188 123.572 0.00173188 124.056 0.00349875C124.346 0.00450901 124.636 0.00551928 124.936 0.00656015C125.66 0.122456 125.66 0.122456 126.373 1.01814C126.466 1.84174 126.466 1.84174 126.472 2.86002C126.476 3.24561 126.48 3.6312 126.484 4.02847C126.485 4.45239 126.485 4.8763 126.486 5.31307C126.49 5.75874 126.493 6.20441 126.497 6.66358C126.508 8.14173 126.514 9.61984 126.52 11.098C126.527 12.1209 126.534 13.1438 126.541 14.1666C126.559 16.8627 126.574 19.5588 126.587 22.255C126.601 25.0046 126.619 27.7542 126.637 30.5038C126.672 35.9018 126.702 41.2998 126.729 46.6978C127.189 46.2877 127.189 46.2877 127.657 45.8692C128.07 45.505 128.482 45.141 128.894 44.777C129.095 44.5974 129.296 44.4178 129.502 44.2328C135.385 39.0598 142.565 37.6265 149.565 39.1685C156.691 40.9168 162.749 45.8977 166.973 53.2789C169.984 59.2164 171.498 65.3594 171.422 72.4206C171.415 73.1583 171.415 73.1583 171.409 73.9109C171.281 81.8623 169.185 89.1319 164.871 95.0645C164.47 95.6222 164.47 95.6222 164.061 96.1911C158.822 103.126 152.168 106.322 144.678 106.693C137.213 106.889 130.428 102.949 125.053 96.6162C122.02 92.6479 119.915 88.0418 118.42 82.8801C118.224 82.0801 118.224 82.0801 117.817 81.6293C117.347 77.2137 117.419 72.74 117.442 68.2952C117.444 67.559 117.447 66.8228 117.449 66.0865C117.455 64.1058 117.464 62.1251 117.473 60.1444C117.481 58.4881 117.488 56.8317 117.494 55.1753C117.51 51.2715 117.528 47.3677 117.547 43.464C117.567 39.4356 117.582 35.4073 117.596 31.3789C117.608 27.9147 117.623 24.4505 117.64 20.9864C117.65 18.9195 117.659 16.8525 117.665 14.7856C117.671 12.8472 117.68 10.9089 117.692 8.97062C117.696 8.25823 117.699 7.54581 117.7 6.8334C117.702 5.86417 117.708 4.89514 117.716 3.92596C117.718 3.38282 117.721 2.83969 117.723 2.2801C117.882 0.148237 118.607 0.00881274 120.134 0.00349875ZM131.23 57.4424C127.642 63.0117 126.306 68.6878 126.729 75.8074C127.748 82.02 130.139 87.45 134.3 91.1704C138.658 94.6156 143.379 95.9431 148.429 94.5607C153.466 92.7943 157.24 89.4128 160.059 83.8125C162.458 78.3322 162.981 72.4225 161.663 66.4027C160.179 60.5514 157.398 55.98 153.108 52.9675C145.618 48.3998 137.086 49.5549 131.23 57.4424Z" fill="white"/>
<path d="M105.931 0.0630345C106.266 0.0624572 106.601 0.0618799 106.947 0.0612851C107.299 0.063017 107.651 0.0647489 108.015 0.0665333C108.543 0.0639354 108.543 0.0639354 109.083 0.0612851C109.585 0.0621511 109.585 0.0621511 110.098 0.0630345C110.407 0.0635396 110.717 0.0640448 111.035 0.0645652C111.757 0.122513 111.757 0.122513 112.114 0.570353C112.154 1.56542 112.168 2.5621 112.173 3.5584C112.175 3.87446 112.177 4.19052 112.179 4.51616C112.185 5.58328 112.189 6.65039 112.193 7.71753C112.197 8.4795 112.201 9.24147 112.205 10.0034C112.216 12.0799 112.225 14.1564 112.234 16.2329C112.241 17.9656 112.249 19.6983 112.258 21.4309C112.278 25.5206 112.296 29.6104 112.313 33.7001C112.33 37.9176 112.35 42.135 112.372 46.3525C112.39 49.9721 112.407 53.5918 112.423 57.2114C112.432 59.3737 112.442 61.5359 112.453 63.6981C112.463 65.7341 112.472 67.7702 112.479 69.8062C112.482 70.5521 112.486 71.2981 112.49 72.044C112.496 73.0655 112.499 74.0869 112.502 75.1083C112.506 75.9645 112.506 75.9645 112.51 76.8379C112.436 79.9243 112.098 82.5556 111 85.352C110.887 85.6429 110.775 85.9338 110.659 86.2335C106.795 96.0354 101.029 102.175 92.7601 105.715C85.5273 108.105 77.9633 106.299 71.5389 101.775C65.0627 96.6912 60.897 89.1166 59.0903 79.8117C57.7117 70.8176 58.932 61.2686 63.0254 53.6201C67.4967 45.7728 73.5407 40.7847 81.0787 38.9726C88.9149 37.5553 96.1266 39.9688 102.489 45.8022C102.965 46.2494 103.44 46.6972 103.915 47.1457C103.914 46.5632 103.914 45.9807 103.913 45.3805C103.906 39.904 103.9 34.4274 103.897 28.9509C103.895 26.135 103.892 23.3191 103.888 20.5033C103.884 17.7883 103.882 15.0733 103.881 12.3583C103.881 11.32 103.879 10.2816 103.877 9.24326C103.875 7.79439 103.874 6.34554 103.875 4.89666C103.873 4.46276 103.872 4.02886 103.871 3.5818C103.871 3.1893 103.872 2.79679 103.872 2.39239C103.872 2.04934 103.872 1.70629 103.871 1.35284C103.963 -0.277917 104.834 0.0648254 105.931 0.0630345ZM71.8328 58.3417C68.5892 63.6475 67.518 69.18 67.9116 75.8074C68.9666 82.2399 71.4776 87.7098 75.8653 91.3979C80.1514 94.6212 84.7005 95.9336 89.6117 94.5607C94.7623 92.7869 98.4786 89.459 101.198 83.7286C103.585 78.1448 104.198 72.5368 102.858 66.4395C101.151 60.0548 98.3009 55.6929 93.5775 52.5198C85.7953 47.9507 77.6222 50.5754 71.8328 58.3417Z" fill="white"/>
<path d="M216.047 45.8324C216.959 46.8364 217.834 47.8696 218.698 48.9376C218.948 49.2458 219.198 49.5541 219.456 49.8717C222.724 54.1859 224.713 59.309 225.828 65.0598C225.895 65.4068 225.963 65.7537 226.032 66.1112C226.199 67.4144 226.25 68.7024 226.288 70.0204C226.617 81.1874 229.44 92.5691 235.927 100.569C237.247 102.081 238.533 103.352 240.087 104.47C239.969 104.765 239.851 105.061 239.73 105.365C232.521 102.241 227.705 96.8871 223.332 89.2431C222.655 90.2991 221.982 91.3559 221.334 92.441C216.953 99.7796 211.286 104.426 204.083 106.261C196.566 107.593 189.22 105.652 183.051 99.9913C177.1 94.1942 173.379 86.1153 172.357 76.7036C171.851 66.9348 173.683 57.6733 178.907 50.1971C179.451 49.4714 180 48.7524 180.556 48.0419C180.775 47.7608 180.994 47.4796 181.22 47.1899C190.583 36.0822 206.126 35.7814 216.047 45.8324ZM185.903 57.8944C182.275 63.3673 181.15 69.2318 181.625 76.2558C182.475 82.1019 184.979 87.4067 188.854 90.8631C192.969 94.1467 197.447 95.843 202.312 94.8429C207.319 93.4081 211.357 90.1857 214.311 84.8242C216.87 79.5828 217.874 73.6947 216.825 67.6244C215.433 61.2293 212.556 56.3989 208.004 52.9681C200.416 47.7486 191.731 50.1661 185.903 57.8944Z" fill="white"/>
<path d="M46.0331 46.9774C51.7937 53.808 54.5878 62.1398 54.9346 72.0262C55.3637 82.998 58.7909 94.0509 65.3048 101.53C66.3514 102.681 67.4172 103.6 68.6245 104.469C68.5068 104.764 68.3892 105.06 68.268 105.364C61.1891 102.381 56.0551 96.8495 51.8703 89.2423C51.5912 89.7384 51.5912 89.7384 51.3064 90.2446C46.8991 97.8761 41.194 104.301 33.5678 106.106C25.1622 107.473 17.6735 105.737 10.8539 99.2067C5.19908 93.3142 1.70495 85.4535 0.895042 76.2549C0.452813 66.2545 2.5134 57.3909 7.77938 49.7484C11.9333 44.2058 16.9991 40.4371 22.9962 39.0842C23.6028 38.9318 23.6028 38.9318 24.2216 38.7763C32.175 37.8998 39.8222 40.4636 46.0331 46.9774ZM14.3616 57.827C11.1867 62.6484 9.80455 68.2723 10.0282 74.4968C10.4635 80.1624 12.4566 85.4753 15.7972 89.3805C19.8956 93.3475 24.522 95.7391 29.7692 95.0642C35.4764 93.8614 39.718 90.2984 43.1493 84.456C45.4381 79.9167 46.2833 74.3968 45.5736 69.1209C45.4648 68.5304 45.3505 67.9414 45.2311 67.3541C45.1681 67.043 45.1051 66.7318 45.0401 66.4113C44.4546 63.7166 43.5716 61.4888 42.2456 59.237C42.0848 58.9541 41.924 58.6712 41.7583 58.3798C39.004 53.9421 34.5342 50.9904 30.1256 50.2802C23.9904 49.655 18.5817 52.1674 14.3616 57.827Z" fill="white"/>
<path d="M338.867 46.4929C344.436 52.5433 347.562 60.3857 348.454 69.5374C348.48 70.3873 348.505 71.2373 348.521 72.0876C348.764 82.2684 351.873 92.5207 357.376 100.071C358.802 101.724 360.398 103.1 362 104.469C361.882 104.764 361.765 105.06 361.644 105.365C357.158 103.176 353.709 100.606 350.237 96.4078C349.974 96.096 349.712 95.7843 349.441 95.4631C348.293 94.0665 347.268 92.6894 346.36 91.0337C346.11 90.5903 345.86 90.147 345.602 89.6902C345.367 89.6902 345.132 89.6902 344.89 89.6902C344.434 90.445 344.434 90.445 343.976 91.4255C340.09 98.9136 334.119 104.085 327.144 106.022C319.709 107.564 312.426 106.132 306.034 100.886C300.334 95.7511 296.298 88.5986 294.804 79.9042C293.546 69.8723 294.952 60.5026 299.641 52.0944C304.238 44.6877 310.645 39.9371 318.08 38.7624C325.652 37.9281 332.982 40.3264 338.867 46.4929ZM307.817 57.8936C304.764 62.9208 303.154 68.5784 303.539 74.9115C304.362 81.395 306.708 86.9309 310.891 90.8937C314.92 94.2757 319.478 95.7388 324.267 94.8578C329.281 93.586 333.416 90.4368 336.267 85.0438C338.818 79.6907 339.951 74.2032 338.93 67.9752C337.496 61.7959 334.852 56.5284 330.416 53.0775C322.731 48.0615 313.747 49.8239 307.817 57.8936Z" fill="white"/>
<path d="M281.438 0.122619C282.678 0.109686 283.918 0.101679 285.158 0.0946285C285.689 0.0889999 285.689 0.0889999 286.231 0.0832576C286.736 0.0810928 286.736 0.0810928 287.251 0.0788842C287.719 0.0753663 287.719 0.0753663 288.196 0.0717773C288.923 0.122619 288.923 0.122619 289.28 0.570458C289.312 1.86218 289.321 3.14313 289.315 4.43483C289.314 4.82186 289.314 5.2089 289.313 5.60766C289.311 6.8489 289.307 8.0901 289.302 9.33132C289.3 10.1707 289.299 11.0101 289.297 11.8495C289.293 13.9118 289.287 15.974 289.28 18.0362C290.121 17.7726 290.962 17.5043 291.802 17.2332C292.036 17.1602 292.271 17.0872 292.513 17.012C294.542 16.3511 296.254 15.3223 298.087 14.0389C298.357 13.8801 298.627 13.7214 298.905 13.5578C299.14 13.7056 299.375 13.8534 299.618 14.0057C296.844 17.9641 293.471 20.484 289.636 22.5146C289.636 22.9477 289.635 23.3808 289.634 23.827C289.613 34.3516 289.586 44.8762 289.552 55.4008C289.536 60.4903 289.522 65.5798 289.513 70.6694C289.505 75.1041 289.493 79.5387 289.476 83.9733C289.468 86.3227 289.461 88.672 289.459 91.0214C289.457 93.2306 289.45 95.4397 289.439 97.6488C289.436 98.4616 289.434 99.2744 289.435 100.087C289.436 101.193 289.43 102.299 289.422 103.404C289.424 103.729 289.426 104.054 289.427 104.389C289.417 105.283 289.417 105.283 289.28 106.708C287.945 107.826 286.901 107.721 285.359 107.688C284.971 107.688 284.971 107.688 284.576 107.687C283.44 107.675 282.522 107.611 281.438 107.156C280.914 105.841 281.033 104.517 281.038 103.076C281.038 102.744 281.038 102.412 281.037 102.07C281.037 100.953 281.039 99.8354 281.041 98.718C281.041 97.9193 281.041 97.1205 281.04 96.3218C281.04 94.1484 281.042 91.975 281.045 89.8017C281.047 87.5322 281.047 85.2627 281.048 82.9933C281.049 78.6935 281.052 74.3937 281.055 70.0939C281.059 65.1997 281.061 60.3054 281.063 55.4112C281.067 45.3414 281.073 35.2715 281.081 25.2016C280.86 25.2332 280.64 25.2648 280.412 25.2973C280.123 25.3383 279.834 25.3793 279.536 25.4215C279.249 25.4623 278.962 25.5031 278.667 25.5452C277.265 25.7294 275.872 25.732 274.464 25.7335C274.179 25.7389 273.895 25.7444 273.601 25.7501C271.242 25.7573 269.062 25.6242 267.201 23.6342C266.239 22.1697 266.04 21.5434 266.154 19.6876C266.313 18.0296 266.454 17.6059 267.335 16.2448C268.498 15.104 269.179 14.7489 270.663 14.7719C271.992 14.9887 273.207 15.6183 274.464 16.1857C275.819 16.7267 277.157 17.0949 278.552 17.4257C278.797 17.4853 279.042 17.545 279.294 17.6065C279.889 17.7515 280.485 17.8941 281.081 18.0362C281.079 17.5254 281.077 17.0145 281.075 16.4882C281.069 14.597 281.065 12.7058 281.062 10.8146C281.06 9.99528 281.057 9.17599 281.054 8.3567C281.05 7.18061 281.048 6.00454 281.046 4.82843C281.044 4.46081 281.043 4.09319 281.041 3.71442C281.041 1.12029 281.041 1.12029 281.438 0.122619Z" fill="white"/>
<path d="M240.8 39.5323C242.04 39.5194 243.28 39.5113 244.52 39.5043C245.051 39.4987 245.051 39.4987 245.593 39.4929C245.93 39.4915 246.266 39.49 246.613 39.4886C247.081 39.485 247.081 39.485 247.558 39.4814C248.286 39.5323 248.286 39.5323 248.642 39.9801C248.673 40.5814 248.68 41.1847 248.677 41.7872C248.676 42.1495 248.675 42.5117 248.673 42.885C248.67 43.2657 248.667 43.6464 248.664 44.0387C248.663 44.4211 248.661 44.8036 248.66 45.1976C248.655 46.1455 248.649 47.0934 248.642 48.0412C248.966 47.8357 249.29 47.6302 249.624 47.4185C255.683 43.6648 261.863 42.1692 268.604 42.1074C268.92 42.1032 269.235 42.099 269.56 42.0947C271.923 42.1093 273.864 42.2381 275.712 44.2626C276.582 45.7392 276.683 47.0795 276.599 48.8844C276.368 50.3279 275.874 51.0888 275.021 52.0718C273.217 53.4483 271.511 52.842 269.539 52.2765C268.682 51.9984 267.83 51.7037 266.978 51.4C263.946 50.3241 261.1 49.7514 257.933 49.7206C257.233 49.7033 257.233 49.7033 256.519 49.6857C254.836 49.7461 253.211 50.1342 251.559 50.5135C251.278 50.577 250.997 50.6404 250.708 50.7057C250.019 50.8614 249.33 51.0186 248.642 51.1761C248.643 51.4615 248.644 51.7469 248.645 52.0409C248.669 58.9776 248.686 65.9144 248.698 72.8512C248.703 76.2057 248.711 79.5603 248.723 82.9148C248.733 85.8379 248.74 88.7609 248.743 91.684C248.744 93.2325 248.747 94.7808 248.755 96.3292C248.764 98.0558 248.764 99.7823 248.764 101.509C248.767 102.025 248.771 102.541 248.775 103.073C248.773 103.775 248.773 103.775 248.771 104.492C248.772 104.901 248.773 105.31 248.774 105.731C248.73 106.053 248.687 106.376 248.642 106.708C247.315 107.82 246.278 107.737 244.743 107.716C244.488 107.719 244.233 107.723 243.97 107.726C242.584 107.72 241.646 107.551 240.443 106.708C240.435 98.0818 240.429 89.4554 240.425 80.829C240.423 76.8239 240.42 72.8187 240.416 68.8135C240.413 65.3236 240.411 61.8337 240.41 58.3438C240.409 56.495 240.408 54.6463 240.406 52.7975C240.403 51.0589 240.402 49.3202 240.403 47.5816C240.403 46.9421 240.402 46.3027 240.401 45.6632C240.399 44.7928 240.4 43.9224 240.4 43.0519C240.4 42.564 240.4 42.076 240.399 41.5733C240.443 40.428 240.443 40.428 240.8 39.5323Z" fill="white"/>
</svg>
