<svg width="316" height="73" viewBox="0 0 316 73" fill="none" xmlns="http://www.w3.org/2000/svg">
<path d="M35.2188 72C35.625 70.0312 35.8281 68.4688 35.8281 67.3125C35.8281 66.125 35.7969 65.2344 35.7344 64.6406C35.7031 64.0469 35.6406 63.4219 35.5469 62.7656C35.4844 62.0781 35.3906 61.3281 35.2656 60.5156C35.1719 59.6719 35.0781 58.7031 34.9844 57.6094C34.2656 50.1406 31.7188 44 27.3438 39.1875C25.4062 37.0625 23.3125 35.4531 21.0625 34.3594C18.8125 33.2344 16.9531 32.6719 15.4844 32.6719C14.0469 32.6719 12.9375 32.7656 12.1562 32.9531C10.4062 38.2031 9.53125 43.6875 9.53125 49.4062C9.53125 54.4688 9.79688 58.25 10.3281 60.75C11.1719 64.5 12.4688 68.2656 14.2188 72.0469H0.203125C0.953125 70.1719 1.32812 66.2344 1.32812 60.2344C1.32812 54.2031 1.78125 48.5781 2.6875 43.3594C3.59375 38.1094 4.76562 33.4375 6.20312 29.3438C7.67188 25.25 9.29688 21.6719 11.0781 18.6094C12.8906 15.5156 14.6875 12.8281 16.4688 10.5469C18.2812 8.23438 19.9844 6.26563 21.5781 4.64062C23.1719 2.98438 24.5 1.53125 25.5625 0.28125H40.3281C38.9844 1.8125 38.3125 3.95312 38.3125 6.70312C38.3125 7.95313 38.5156 10 38.9219 12.8438L40.0938 21.375C44.375 50.875 48.2031 67.75 51.5781 72H35.2188ZM14.0781 27.9844C15.2969 27.5156 16.5781 27.2812 17.9219 27.2812C19.2656 27.2812 20.4688 27.375 21.5312 27.5625C22.625 27.75 23.7031 28.0625 24.7656 28.5C27.0469 29.375 28.9531 30.7656 30.4844 32.6719C28.9531 24.6406 28.0156 19.7344 27.6719 17.9531L26.0312 9.75L23.3594 12.9375C19.6094 17.4375 16.5156 22.4531 14.0781 27.9844ZM83.7812 68.2969C80.375 71.3906 76.0469 72.9375 70.7969 72.9375C65.9844 72.9375 62.1875 71.5469 59.4062 68.7656C56.5312 65.8906 55.0938 61.8438 55.0938 56.625C55.0938 51.375 55.8594 46.7969 57.3906 42.8906C58.9219 38.9531 60.9375 35.6562 63.4375 33C68.375 27.75 74.4375 24.9844 81.625 24.7031C81.375 15.0781 81.0469 9.5625 80.6406 8.15625C80.2656 6.71875 79.875 5.59375 79.4688 4.78125C79.0938 3.9375 78.6562 3.17188 78.1562 2.48438L76.5625 0.28125H93.6719C92.7969 3.4375 92.2812 6.5 92.125 9.46875C92 12.4375 91.9062 15.0469 91.8438 17.2969C91.7812 19.5469 91.7344 21.9062 91.7031 24.375C91.6094 28.5 91.5625 32.6094 91.5625 36.7031C91.5625 40.7656 91.5625 43.8438 91.5625 45.9375C91.5938 48.0312 91.6406 50.0156 91.7031 51.8906C91.8594 58.9219 92.125 63.1094 92.5 64.4531C92.875 65.7656 93.25 66.8281 93.625 67.6406C94.0312 68.4219 94.4844 69.1562 94.9844 69.8438L96.5781 72H84.4375L83.7812 68.2969ZM81.6719 54.7969C81.8281 49.9844 81.9062 45.4844 81.9062 41.2969C81.9062 37.0781 81.8594 33.0625 81.7656 29.25C77.2344 29.9375 73.6094 32.6094 70.8906 37.2656C68.1719 41.8906 66.8125 47.7188 66.8125 54.75C66.8125 58.9062 67.125 61.8125 67.75 63.4688C68.4062 65.125 69.1719 66.3438 70.0469 67.125C70.9531 67.875 72.0312 68.25 73.2812 68.25C74.5625 68.25 75.6719 68 76.6094 67.5C77.5781 66.9688 78.4219 66.2031 79.1406 65.2031C80.7031 63.0781 81.5469 59.6094 81.6719 54.7969ZM117.203 26.1094C120.328 24.5156 123.453 23.7188 126.578 23.7188C129.734 23.7188 132.281 24.0781 134.219 24.7969C136.156 25.4844 137.812 26.5 139.188 27.8438C142.062 30.6875 143.5 34.75 143.5 40.0312C143.5 50.4688 140.766 58.5625 135.297 64.3125C130.391 69.4375 124.266 72 116.922 72H104.172L105.062 69.8438C106 67.5625 106.547 65.2188 106.703 62.8125C106.859 60.375 106.969 58.1562 107.031 56.1562C107.125 54.125 107.203 51.9375 107.266 49.5938C107.422 45.375 107.5 41.2344 107.5 37.1719C107.5 33.1094 107.484 30.0312 107.453 27.9375C107.422 25.8438 107.391 23.8125 107.359 21.8438C107.172 14.4062 106.859 9.89062 106.422 8.29688C106.016 6.67187 105.609 5.46875 105.203 4.6875C104.828 3.875 104.391 3.125 103.891 2.4375L102.297 0.28125H119.406C118.25 4.40625 117.516 13.0156 117.203 26.1094ZM117.25 38.4375L117.109 55.6875C117.109 61.7188 117.266 65.9531 117.578 68.3906C121.859 67.4531 125.297 64.5938 127.891 59.8125C130.484 55.0938 131.781 49.2812 131.781 42.375C131.781 38.0938 131.453 35.0938 130.797 33.375C130.172 31.625 129.406 30.3594 128.5 29.5781C127.625 28.7969 126.562 28.4062 125.312 28.4062C124.094 28.4062 123.016 28.625 122.078 29.0625C121.141 29.5 120.312 30.1406 119.594 30.9844C118.031 32.8281 117.25 35.3125 117.25 38.4375ZM188.266 46.9688L188.125 55.9688C188.125 61.5625 188.641 65.375 189.672 67.4062C190.297 68.625 191.031 69.5625 191.875 70.2188L194.078 72H180.484L179.031 66.5625C175.5 70.8125 170.469 72.9375 163.938 72.9375C160.219 72.9375 157.219 71.6875 154.938 69.1875C152.938 66.9375 151.938 64.2812 151.938 61.2188C151.938 58.1562 152.656 55.4844 154.094 53.2031C155.562 50.9219 157.484 49.0312 159.859 47.5312C164.547 44.625 170.438 43.1094 177.531 42.9844V42.4688C177.531 34.875 176.359 30.4219 174.016 29.1094C173.172 28.6406 172.078 28.4062 170.734 28.4062C169.422 28.4062 168.109 28.8438 166.797 29.7188C165.484 30.5938 164.297 31.7188 163.234 33.0938C161.109 35.875 159.594 39.1562 158.688 42.9375C155.906 41.2812 154.516 38.1094 154.516 33.4219C154.516 31.5156 154.766 29.375 155.266 27C156.453 27 157.578 26.8281 158.641 26.4844L162.25 25.3594C165.781 24.2656 169.234 23.7188 172.609 23.7188C175.984 23.7188 178.672 24.2188 180.672 25.2188C182.703 26.2188 184.281 27.7031 185.406 29.6719C187.312 33.0156 188.266 38.7812 188.266 46.9688ZM162.062 62.1562C162.062 64.0938 162.5 65.5938 163.375 66.6562C164.281 67.7188 165.406 68.25 166.75 68.25C168.094 68.25 169.391 67.9062 170.641 67.2188C171.891 66.5 173.016 65.5312 174.016 64.3125C176.359 61.5312 177.531 58.2656 177.531 54.5156V47.5781C173.156 47.9844 169.547 49.4375 166.703 51.9375C163.609 54.625 162.062 58.0312 162.062 62.1562ZM202.234 72C203.672 67.0625 204.391 58.5781 204.391 46.5469C204.391 37.9844 203.703 32.1406 202.328 29.0156C201.766 27.7344 200.766 26.2812 199.328 24.6562H215.969C215.406 26.625 214.953 29.3281 214.609 32.7656C217.547 29.0781 221.641 26.4688 226.891 24.9375C229.141 24.2812 230.781 23.25 231.812 21.8438C232.844 24.3125 233.359 26.4375 233.359 28.2188C233.359 30 233.266 31.6562 233.078 33.1875C232.891 34.6875 232.609 36.1562 232.234 37.5938C231.422 40.6875 230.344 43.0938 229 44.8125C227.844 38.7188 226.047 35.1562 223.609 34.125C220.797 32.9062 218.047 34.5625 215.359 39.0938C214.797 40.0312 214.328 41.0312 213.953 42.0938C213.922 42.8125 213.906 43.5469 213.906 44.2969C213.906 45.0469 213.906 45.7969 213.906 46.5469C213.906 58.5781 214.625 67.0625 216.062 72H202.234ZM253.422 5.90625C252.766 8.3125 252.438 11.2031 252.438 14.5781C252.438 17.9219 252.5 20.0625 252.625 21C252.781 21.9375 253.016 22.6875 253.328 23.25C253.922 24.1875 255.078 24.6562 256.797 24.6562H269.359C269.359 26.4062 268.938 27.75 268.094 28.6875C266.562 30.375 264.688 31.2188 262.469 31.2188C261.375 31.2188 260.406 31.0625 259.562 30.75C258.031 30.125 256.844 29.8125 256 29.8125C255.156 29.8125 254.469 29.9844 253.938 30.3281C253.406 30.6406 252.984 31.1094 252.672 31.7344C252.109 32.8594 251.828 35.3125 251.828 39.0938C251.828 42.875 251.938 46.75 252.156 50.7188C252.406 54.6875 253 58.0156 253.938 60.7031C254.875 63.3594 256.297 65.3594 258.203 66.7031C260.109 68.0469 262.734 68.7188 266.078 68.7188C266.078 69.6875 265.422 70.8438 264.109 72.1875C263.766 72.5625 263.469 72.8125 263.219 72.9375C257.688 72.9375 253.547 72.2812 250.797 70.9688C247.641 69.4062 245.391 66.625 244.047 62.625C242.703 58.5625 242.031 52.5469 242.031 44.5781C242.031 37.6094 241.844 33.5 241.469 32.25C241.094 30.9688 240.75 30.125 240.438 29.7188C240.062 29.25 239.156 28.6719 237.719 27.9844C239.656 26.5156 241.578 23.7812 243.484 19.7812L245.828 14.8594C247.484 11.1094 248.891 8.6875 250.047 7.59375C251.234 6.46875 252.359 5.90625 253.422 5.90625ZM309.203 46.9688L309.062 55.9688C309.062 61.5625 309.578 65.375 310.609 67.4062C311.234 68.625 311.969 69.5625 312.812 70.2188L315.016 72H301.422L299.969 66.5625C296.438 70.8125 291.406 72.9375 284.875 72.9375C281.156 72.9375 278.156 71.6875 275.875 69.1875C273.875 66.9375 272.875 64.2812 272.875 61.2188C272.875 58.1562 273.594 55.4844 275.031 53.2031C276.5 50.9219 278.422 49.0312 280.797 47.5312C285.484 44.625 291.375 43.1094 298.469 42.9844V42.4688C298.469 34.875 297.297 30.4219 294.953 29.1094C294.109 28.6406 293.016 28.4062 291.672 28.4062C290.359 28.4062 289.047 28.8438 287.734 29.7188C286.422 30.5938 285.234 31.7188 284.172 33.0938C282.047 35.875 280.531 39.1562 279.625 42.9375C276.844 41.2812 275.453 38.1094 275.453 33.4219C275.453 31.5156 275.703 29.375 276.203 27C277.391 27 278.516 26.8281 279.578 26.4844L283.188 25.3594C286.719 24.2656 290.172 23.7188 293.547 23.7188C296.922 23.7188 299.609 24.2188 301.609 25.2188C303.641 26.2188 305.219 27.7031 306.344 29.6719C308.25 33.0156 309.203 38.7812 309.203 46.9688ZM283 62.1562C283 64.0938 283.438 65.5938 284.312 66.6562C285.219 67.7188 286.344 68.25 287.688 68.25C289.031 68.25 290.328 67.9062 291.578 67.2188C292.828 66.5 293.953 65.5312 294.953 64.3125C297.297 61.5312 298.469 58.2656 298.469 54.5156V47.5781C294.094 47.9844 290.484 49.4375 287.641 51.9375C284.547 54.625 283 58.0312 283 62.1562Z" fill="white"/>
</svg>
